<svg xmlns="http://www.w3.org/2000/svg" viewBox="0 0 126.44 14.69"><defs><style>.cls-1{fill:#1d1d1b;}</style></defs><g id="Calque_2" data-name="Calque 2"><g id="Calque_1-2" data-name="Calque 1"><path class="cls-1" d="M7.28.29v4a2.16,2.16,0,0,0-.7-.16,1.11,1.11,0,0,0-.81.35,1.18,1.18,0,0,0-.34.84A2.39,2.39,0,0,0,5.8,6.38l.32.55A5.74,5.74,0,0,1,7,9.82a4.64,4.64,0,0,1-1.45,3.46A4.9,4.9,0,0,1,2,14.69a4.62,4.62,0,0,1-2-.46V10.18a2,2,0,0,0,1.06.38,1.31,1.31,0,0,0,.9-.31,1,1,0,0,0,.37-.79,4.09,4.09,0,0,0-.59-1.34A6.6,6.6,0,0,1,.81,4.84,4.68,4.68,0,0,1,2.22,1.43,4.57,4.57,0,0,1,5.59,0,5.18,5.18,0,0,1,7.28.29Z"/><path class="cls-1" d="M14.47,7.32V11h-1.2v3.34H9.11V5.44a5.46,5.46,0,0,1,1.41-4,5.32,5.32,0,0,1,4-1.43,4.67,4.67,0,0,1,3.64,1.3,5.83,5.83,0,0,1,1.18,4v9.05H15.13V5.58a2.36,2.36,0,0,0-.19-1.14.76.76,0,0,0-.7-.32c-.65,0-1,.49-1,1.46V7.32Z"/><path class="cls-1" d="M21.53,14.35V5.26A5.18,5.18,0,0,1,23,1.44,5.15,5.15,0,0,1,26.77,0,4.64,4.64,0,0,1,30.4,1.39a5.84,5.84,0,0,1,1.25,4v9H27.49V5.4c0-.85-.3-1.28-.91-1.28s-.88.43-.88,1.28v9Z"/><path class="cls-1" d="M39.15.35h4.16V8.66a1.91,1.91,0,0,0,.32,1.3,1.7,1.7,0,0,0,1.23.32h.22v4.07H44A4.71,4.71,0,0,1,40.42,13a5.12,5.12,0,0,1-1.27-3.69Z"/><path class="cls-1" d="M51.56,7.32V11h-1.2v3.34H46.19V5.44a5.46,5.46,0,0,1,1.41-4,5.33,5.33,0,0,1,4-1.43,4.67,4.67,0,0,1,3.64,1.3,5.83,5.83,0,0,1,1.18,4v9.05H52.22V5.58A2.36,2.36,0,0,0,52,4.44a.76.76,0,0,0-.7-.32c-.65,0-1,.49-1,1.46V7.32Z"/><path class="cls-1" d="M68.36.35,64,10.33h4.29v4H57.75l4.33-10H57.5v-4Z"/><path class="cls-1" d="M79.22.35l-4.35,10h4.3v4H68.61l4.33-10H68.36v-4Z"/><path class="cls-1" d="M85.7,7.32V11H84.5v3.34H80.34V5.44a5.46,5.46,0,0,1,1.41-4,5.32,5.32,0,0,1,4-1.43,4.66,4.66,0,0,1,3.64,1.3,5.78,5.78,0,0,1,1.18,4v9.05H86.37V5.58a2.33,2.33,0,0,0-.2-1.14.75.75,0,0,0-.69-.32c-.65,0-1,.49-1,1.46V7.32Z"/><path class="cls-1" d="M97.22,4.11V14.35H93.05V.35H98.4a5.45,5.45,0,0,1,3.78,1.21A4.42,4.42,0,0,1,103.68,5a4.39,4.39,0,0,1-1.86,3.58l2.4,5.78H99.85l-2-4.52V6.23h.33c.88,0,1.31-.37,1.31-1.12s-.5-1-1.51-1Z"/><path class="cls-1" d="M112.25,0a6.91,6.91,0,0,1,5.1,2.16,7.14,7.14,0,0,1,2.13,5.18,7.12,7.12,0,0,1-2.14,5.21,7.39,7.39,0,0,1-10.41,0,7.08,7.08,0,0,1-2.16-5.2,7.05,7.05,0,0,1,2.17-5.21A7.3,7.3,0,0,1,112.25,0Zm-.12,4.12a2.92,2.92,0,0,0-2.19,1,3.15,3.15,0,0,0-.9,2.27A3.15,3.15,0,0,0,110,9.62a3,3,0,0,0,4.37,0,3.19,3.19,0,0,0,.89-2.28,3.22,3.22,0,0,0-.89-2.28A2.94,2.94,0,0,0,112.13,4.12Z"/><path class="cls-1" d="M124,9.75a2.34,2.34,0,0,1,1.73.73,2.36,2.36,0,0,1,.72,1.73,2.3,2.3,0,0,1-.72,1.71,2.41,2.41,0,0,1-4.15-1.72,2.4,2.4,0,0,1,.71-1.74A2.33,2.33,0,0,1,124,9.75Z"/></g></g></svg>